<svg xmlns="http://www.w3.org/2000/svg" version="1.1" xmlns:xlink="http://www.w3.org/1999/xlink" xmlns:svgjs="http://svgjs.com/svgjs" width="1440" height="560" preserveAspectRatio="none" viewBox="0 0 1440 560"><g mask="url(&quot;#SvgjsMask1130&quot;)" fill="none"><rect width="1440" height="560" x="0" y="0" fill="rgba(173, 255, 47, 1)"></rect><path d="M548.05 47.89 a109.26 109.26 0 1 0 218.52 0 a109.26 109.26 0 1 0 -218.52 0z" fill="rgba(47, 255, 78, 0.73)" class="triangle-float2"></path><path d="M188.62 297.3 a148.06 148.06 0 1 0 296.12 0 a148.06 148.06 0 1 0 -296.12 0z" fill="rgba(47, 255, 78, 0.73)" class="triangle-float2"></path><path d="M744.47 229.42 a165.43 165.43 0 1 0 330.86 0 a165.43 165.43 0 1 0 -330.86 0z" fill="rgba(47, 255, 78, 0.73)" class="triangle-float2"></path><path d="M514.35 187.88 a107.23 107.23 0 1 0 214.46 0 a107.23 107.23 0 1 0 -214.46 0z" fill="rgba(47, 255, 78, 0.73)" class="triangle-float1"></path><path d="M1251.05 265.47 a162.33 162.33 0 1 0 324.66 0 a162.33 162.33 0 1 0 -324.66 0z" fill="rgba(47, 255, 78, 0.73)" class="triangle-float1"></path><path d="M1101.22 123.27 a161 161 0 1 0 322 0 a161 161 0 1 0 -322 0z" fill="rgba(47, 255, 78, 0.73)" class="triangle-float3"></path></g><defs><mask id="SvgjsMask1130"><rect width="1440" height="560" fill="#ffffff"></rect></mask><style>
            @keyframes float1 {
                0%{transform: translate(0, 0)}
                50%{transform: translate(-10px, 0)}
                100%{transform: translate(0, 0)}
            }

            .triangle-float1 {
                animation: float1 5s infinite;
            }

            @keyframes float2 {
                0%{transform: translate(0, 0)}
                50%{transform: translate(-5px, -5px)}
                100%{transform: translate(0, 0)}
            }

            .triangle-float2 {
                animation: float2 4s infinite;
            }

            @keyframes float3 {
                0%{transform: translate(0, 0)}
                50%{transform: translate(0, -10px)}
                100%{transform: translate(0, 0)}
            }

            .triangle-float3 {
                animation: float3 6s infinite;
            }
        </style></defs></svg>